<?xml version="1.0" encoding="UTF-8" standalone="no"?>
<svg
   viewBox="0 0 1390.2142 776.70659"
   preserveAspectRatio="xMidYMid"
   focusable="false"
   class="style-scope yt-icon"
   style="display:block"
   version="1.1"
   id="svg97"
   width="367.82751mm"
   height="205.50362mm"
   xml:space="preserve"
   sodipodi:docname="map2.svg"
   inkscape:version="1.4.2 (ebf0e940d0, 2025-05-08)"
   xmlns:inkscape="http://www.inkscape.org/namespaces/inkscape"
   xmlns:sodipodi="http://sodipodi.sourceforge.net/DTD/sodipodi-0.dtd"
   xmlns="http://www.w3.org/2000/svg"
   xmlns:svg="http://www.w3.org/2000/svg"><sodipodi:namedview
     id="namedview1"
     pagecolor="#ffffff"
     bordercolor="#cccccc"
     borderopacity="1"
     inkscape:showpageshadow="0"
     inkscape:pageopacity="1"
     inkscape:pagecheckerboard="0"
     inkscape:deskcolor="#d1d1d1"
     inkscape:document-units="mm"
     showgrid="false"
     inkscape:zoom="0.71643634"
     inkscape:cx="567.39165"
     inkscape:cy="402.68756"
     inkscape:window-width="1920"
     inkscape:window-height="1020"
     inkscape:window-x="0"
     inkscape:window-y="35"
     inkscape:window-maximized="1"
     inkscape:current-layer="g196" /><defs
     id="defs101" /><rect
     style="display:block;fill:#c1c1c1;fill-opacity:1;stroke:none;stroke-width:6.49475;stroke-linecap:round;stroke-dasharray:none;stroke-opacity:1;paint-order:fill markers stroke"
     id="rect1"
     width="1390.2142"
     height="776.7066"
     x="-7.8172401e-05"
     y="-6.0501534e-05" /><g
     viewBox="0 0 90 20"
     preserveAspectRatio="xMidYMid meet"
     class="style-scope yt-icon"
     id="g95"
     transform="translate(551.75441,204.83304)"
     style="fill: #ff9898; stroke: #000; stroke-width: 0.93436; stroke-linecap: round;"><g
       id="g196"
       class="places"><rect
         style="paint-order:fill markers stroke"
         id="B1"
         width="39.04475"
         height="18.532322"
         x="-134.62495"
         y="-60.129513"
         transform="matrix(3.2107388,0,0,3.2107388,43.086057,138.57063)"
         class="pole" /><rect
         style="paint-order:fill markers stroke"
         id="A1"
         width="39.04475"
         height="18.532322"
         x="-134.62495"
         y="-78.661835"
         transform="matrix(3.2107388,0,0,3.2107388,43.086057,138.57063)" /><rect
         style="paint-order:fill markers stroke"
         id="A2"
         width="39.04475"
         height="18.532322"
         x="-63.613243"
         y="-78.661835"
         transform="matrix(3.2107388,0,0,3.2107388,43.086057,138.57063)" /><rect
         style="paint-order:fill markers stroke"
         id="A3"
         width="39.04475"
         height="18.532322"
         x="-24.568493"
         y="-78.661835"
         transform="matrix(3.2107388,0,0,3.2107388,43.086057,138.57063)" /><rect
         style="paint-order:fill markers stroke"
         id="A4"
         width="39.04475"
         height="18.532322"
         x="47.053482"
         y="-78.661835"
         transform="matrix(3.2107388,0,0,3.2107388,43.086057,138.57063)" /><rect
         style="paint-order:fill markers stroke"
         id="A5"
         width="39.04475"
         height="18.532322"
         x="86.098236"
         y="-78.661835"
         transform="matrix(3.2107388,0,0,3.2107388,43.086057,138.57063)" /><rect
         style="paint-order:fill markers stroke"
         id="A6"
         width="39.04475"
         height="18.532322"
         x="158.03726"
         y="-78.661835"
         transform="matrix(3.2107388,0,0,3.2107388,43.086057,138.57063)" /><rect
         style="paint-order:fill markers stroke"
         id="B2"
         width="39.04475"
         height="18.532322"
         x="-63.613247"
         y="-60.129513"
         transform="matrix(3.2107388,0,0,3.2107388,43.086057,138.57063)" /><rect
         style="paint-order:fill markers stroke"
         id="B3"
         width="39.04475"
         height="18.532322"
         x="-24.568493"
         y="-60.129513"
         transform="matrix(3.2107388,0,0,3.2107388,43.086057,138.57063)" /><rect
         style="paint-order:fill markers stroke"
         id="B4"
         width="39.04475"
         height="18.532322"
         x="47.053486"
         y="-60.129513"
         transform="matrix(3.2107388,0,0,3.2107388,43.086057,138.57063)" /><rect
         style="paint-order:fill markers stroke"
         id="B5"
         width="39.04475"
         height="18.532322"
         x="86.098236"
         y="-60.129513"
         transform="matrix(3.2107388,0,0,3.2107388,43.086057,138.57063)" /><rect
         style="paint-order:fill markers stroke"
         id="B6"
         width="39.04475"
         height="18.532322"
         x="158.03726"
         y="-60.129513"
         transform="matrix(3.2107388,0,0,3.2107388,43.086057,138.57063)" /><rect
         style="paint-order:fill markers stroke"
         id="C1"
         width="39.04475"
         height="18.532322"
         x="-134.62495"
         y="-41.597187"
         transform="matrix(3.2107388,0,0,3.2107388,43.086057,138.57063)" /><rect
         style="paint-order:fill markers stroke"
         id="C2"
         width="39.04475"
         height="18.532322"
         x="-63.613247"
         y="-41.597187"
         transform="matrix(3.2107388,0,0,3.2107388,43.086057,138.57063)" /><rect
         style="paint-order:fill markers stroke"
         id="C3"
         width="39.04475"
         height="18.532322"
         x="-24.568493"
         y="-41.597187"
         transform="matrix(3.2107388,0,0,3.2107388,43.086057,138.57063)" /><rect
         style="paint-order:fill markers stroke"
         id="C4"
         width="39.04475"
         height="18.532322"
         x="47.053486"
         y="-41.597187"
         transform="matrix(3.2107388,0,0,3.2107388,43.086057,138.57063)" /><rect
         style="paint-order:fill markers stroke"
         id="C5"
         width="39.04475"
         height="18.532322"
         x="86.098236"
         y="-41.597187"
         transform="matrix(3.2107388,0,0,3.2107388,43.086057,138.57063)" /><rect
         style="paint-order:fill markers stroke"
         id="C6"
         width="39.04475"
         height="18.532322"
         x="158.03726"
         y="-41.597187"
         transform="matrix(3.2107388,0,0,3.2107388,43.086057,138.57063)" /><rect
         style="paint-order:fill markers stroke"
         id="D1"
         width="39.04475"
         height="18.532322"
         x="-134.62495"
         y="-23.064865"
         transform="matrix(3.2107388,0,0,3.2107388,43.086057,138.57063)" /><rect
         style="paint-order:fill markers stroke"
         id="D2"
         width="39.04475"
         height="18.532322"
         x="-63.613247"
         y="-23.064865"
         transform="matrix(3.2107388,0,0,3.2107388,43.086057,138.57063)" /><rect
         style="paint-order:fill markers stroke"
         id="D3"
         width="39.04475"
         height="18.532322"
         x="-24.568493"
         y="-23.064865"
         transform="matrix(3.2107388,0,0,3.2107388,43.086057,138.57063)" /><rect
         style="paint-order:fill markers stroke"
         id="D4"
         width="39.04475"
         height="18.532322"
         x="47.053486"
         y="-23.064865"
         transform="matrix(3.2107388,0,0,3.2107388,43.086057,138.57063)" /><rect
         style="paint-order:fill markers stroke"
         id="D5"
         width="39.04475"
         height="18.532322"
         x="86.098236"
         y="-23.064865"
         transform="matrix(3.2107388,0,0,3.2107388,43.086057,138.57063)" /><rect
         style="paint-order:fill markers stroke"
         id="D6"
         width="39.04475"
         height="18.532322"
         x="158.03726"
         y="-23.064865"
         transform="matrix(3.2107388,0,0,3.2107388,43.086057,138.57063)" /><rect
         style="paint-order:fill markers stroke"
         id="E1"
         width="39.04475"
         height="18.532322"
         x="-134.62495"
         y="-4.5325432"
         transform="matrix(3.2107388,0,0,3.2107388,43.086057,138.57063)" /><rect
         style="paint-order:fill markers stroke"
         id="E2"
         width="39.04475"
         height="18.532322"
         x="-63.613247"
         y="-4.5325432"
         transform="matrix(3.2107388,0,0,3.2107388,43.086057,138.57063)" /><rect
         style="paint-order:fill markers stroke"
         id="E3"
         width="39.04475"
         height="18.532322"
         x="-24.568493"
         y="-4.5325432"
         transform="matrix(3.2107388,0,0,3.2107388,43.086057,138.57063)" /><rect
         style="paint-order:fill markers stroke"
         id="E4"
         width="39.04475"
         height="18.532322"
         x="47.053486"
         y="-4.5325432"
         transform="matrix(3.2107388,0,0,3.2107388,43.086057,138.57063)" /><rect
         style="paint-order:fill markers stroke"
         id="E5"
         width="39.04475"
         height="18.532322"
         x="86.098236"
         y="-4.5325432"
         transform="matrix(3.2107388,0,0,3.2107388,43.086057,138.57063)" /><rect
         style="paint-order:fill markers stroke"
         id="E6"
         width="39.04475"
         height="18.532322"
         x="158.03726"
         y="-4.5325432"
         transform="matrix(3.2107388,0,0,3.2107388,43.086057,138.57063)" /><rect
         style="paint-order:fill markers stroke"
         id="F1"
         width="39.04475"
         height="18.532322"
         x="-134.62495"
         y="13.999779"
         transform="matrix(3.2107388,0,0,3.2107388,43.086057,138.57063)" /><rect
         style="paint-order:fill markers stroke"
         id="F2"
         width="39.04475"
         height="18.532322"
         x="-63.613247"
         y="13.999779"
         transform="matrix(3.2107388,0,0,3.2107388,43.086057,138.57063)" /><rect
         style="paint-order:fill markers stroke"
         id="F3"
         width="39.04475"
         height="18.532322"
         x="-24.568493"
         y="13.999779"
         transform="matrix(3.2107388,0,0,3.2107388,43.086057,138.57063)" /><rect
         style="paint-order:fill markers stroke"
         id="F4"
         width="39.04475"
         height="18.532322"
         x="47.053486"
         y="13.999779"
         transform="matrix(3.2107388,0,0,3.2107388,43.086057,138.57063)" /><rect
         style="paint-order:fill markers stroke"
         id="F5"
         width="39.04475"
         height="18.532322"
         x="86.098236"
         y="13.999779"
         transform="matrix(3.2107388,0,0,3.2107388,43.086057,138.57063)" /><rect
         style="paint-order:fill markers stroke"
         id="F6"
         width="39.04475"
         height="18.532322"
         x="158.03726"
         y="13.999779"
         transform="matrix(3.2107388,0,0,3.2107388,43.086057,138.57063)" /><rect
         style="paint-order:fill markers stroke"
         id="G1"
         width="39.04475"
         height="18.532322"
         x="-134.62495"
         y="32.532101"
         transform="matrix(3.2107388,0,0,3.2107388,43.086057,138.57063)" /><rect
         style="paint-order:fill markers stroke"
         id="G2"
         width="39.04475"
         height="18.532322"
         x="-63.613247"
         y="32.532101"
         transform="matrix(3.2107388,0,0,3.2107388,43.086057,138.57063)" /><rect
         style="paint-order:fill markers stroke"
         id="G3"
         width="39.04475"
         height="18.532322"
         x="-24.568493"
         y="32.532101"
         transform="matrix(3.2107388,0,0,3.2107388,43.086057,138.57063)" /><rect
         style="paint-order:fill markers stroke"
         id="G4"
         width="39.04475"
         height="18.532322"
         x="47.053486"
         y="32.532101"
         transform="matrix(3.2107388,0,0,3.2107388,43.086057,138.57063)" /><rect
         style="paint-order:fill markers stroke"
         id="G5"
         width="39.04475"
         height="18.532322"
         x="86.098236"
         y="32.532101"
         transform="matrix(3.2107388,0,0,3.2107388,43.086057,138.57063)" /><rect
         style="paint-order:fill markers stroke"
         id="G6"
         width="39.04475"
         height="18.532322"
         x="158.03726"
         y="32.532101"
         transform="matrix(3.2107388,0,0,3.2107388,43.086057,138.57063)" /><rect
         style="paint-order:fill markers stroke"
         id="H1"
         width="39.04475"
         height="18.532322"
         x="-134.62495"
         y="51.064423"
         transform="matrix(3.2107388,0,0,3.2107388,43.086057,138.57063)" /><rect
         style="paint-order:fill markers stroke"
         id="H2"
         width="39.04475"
         height="18.532322"
         x="-63.613247"
         y="51.064423"
         transform="matrix(3.2107388,0,0,3.2107388,43.086057,138.57063)" /><rect
         style="paint-order:fill markers stroke"
         id="H3"
         width="39.04475"
         height="18.532322"
         x="-24.568493"
         y="51.064423"
         transform="matrix(3.2107388,0,0,3.2107388,43.086057,138.57063)" /><rect
         style="paint-order:fill markers stroke"
         id="H4"
         width="39.04475"
         height="18.532322"
         x="47.053486"
         y="51.064423"
         transform="matrix(3.2107388,0,0,3.2107388,43.086057,138.57063)" /><rect
         style="paint-order:fill markers stroke"
         id="H5"
         width="39.04475"
         height="18.532322"
         x="86.098236"
         y="51.064423"
         transform="matrix(3.2107388,0,0,3.2107388,43.086057,138.57063)" /><rect
         style="paint-order:fill markers stroke"
         id="H6"
         width="39.04475"
         height="18.532322"
         x="158.03726"
         y="51.064423"
         transform="matrix(3.2107388,0,0,3.2107388,43.086057,138.57063)" /><rect
         style="paint-order:fill markers stroke"
         id="I1"
         width="39.04475"
         height="18.532322"
         x="-134.62495"
         y="69.596748"
         transform="matrix(3.2107388,0,0,3.2107388,43.086057,138.57063)" /><rect
         style="paint-order:fill markers stroke"
         id="I2"
         width="39.04475"
         height="18.532322"
         x="-63.613247"
         y="69.596748"
         transform="matrix(3.2107388,0,0,3.2107388,43.086057,138.57063)" /><rect
         style="paint-order:fill markers stroke"
         id="I3"
         width="39.04475"
         height="18.532322"
         x="-24.568493"
         y="69.596748"
         transform="matrix(3.2107388,0,0,3.2107388,43.086057,138.57063)" /><rect
         style="paint-order:fill markers stroke"
         id="I4"
         width="39.04475"
         height="18.532322"
         x="47.053486"
         y="69.596748"
         transform="matrix(3.2107388,0,0,3.2107388,43.086057,138.57063)" /><rect
         style="paint-order:fill markers stroke"
         id="I5"
         width="39.04475"
         height="18.532322"
         x="86.098236"
         y="69.596748"
         transform="matrix(3.2107388,0,0,3.2107388,43.086057,138.57063)" /><rect
         style="paint-order:fill markers stroke"
         id="I6"
         width="39.04475"
         height="18.532322"
         x="158.03726"
         y="69.596748"
         transform="matrix(3.2107388,0,0,3.2107388,43.086057,138.57063)" /><rect
         style="paint-order:fill markers stroke"
         id="J1"
         width="39.04475"
         height="18.532322"
         x="-134.62495"
         y="88.129074"
         transform="matrix(3.2107388,0,0,3.2107388,43.086057,138.57063)" /><rect
         style="paint-order:fill markers stroke"
         id="J2"
         width="39.04475"
         height="18.532322"
         x="-63.613247"
         y="88.129074"
         transform="matrix(3.2107388,0,0,3.2107388,43.086057,138.57063)" /><rect
         style="paint-order:fill markers stroke"
         id="J3"
         width="39.04475"
         height="18.532322"
         x="-24.568493"
         y="88.129074"
         transform="matrix(3.2107388,0,0,3.2107388,43.086057,138.57063)" /><rect
         style="paint-order:fill markers stroke"
         id="J4"
         width="39.04475"
         height="18.532322"
         x="47.053486"
         y="88.129074"
         transform="matrix(3.2107388,0,0,3.2107388,43.086057,138.57063)" /><rect
         style="paint-order:fill markers stroke"
         id="J5"
         width="39.04475"
         height="18.532322"
         x="86.098236"
         y="88.129074"
         transform="matrix(3.2107388,0,0,3.2107388,43.086057,138.57063)" /><rect
         style="paint-order:fill markers stroke"
         id="J6"
         width="39.04475"
         height="18.532322"
         x="158.03726"
         y="88.129074"
         transform="matrix(3.2107388,0,0,3.2107388,43.086057,138.57063)" /></g></g></svg>
