<?xml version="1.0" encoding="UTF-8" standalone="no"?>
<svg
   viewBox="0 0 1160.2347 816.2805"
   preserveAspectRatio="xMidYMid"
   focusable="false"
   class="style-scope yt-icon"
   style="display:block"
   version="1.1"
   id="svg97"
   width="306.97876mm"
   height="215.97421mm"
   xml:space="preserve"
   sodipodi:docname="map3.svg"
   inkscape:version="1.4.2 (ebf0e940d0, 2025-05-08)"
   xmlns:inkscape="http://www.inkscape.org/namespaces/inkscape"
   xmlns:sodipodi="http://sodipodi.sourceforge.net/DTD/sodipodi-0.dtd"
   xmlns="http://www.w3.org/2000/svg"
   xmlns:svg="http://www.w3.org/2000/svg"><sodipodi:namedview
     id="namedview1"
     pagecolor="#ffffff"
     bordercolor="#cccccc"
     borderopacity="1"
     inkscape:showpageshadow="0"
     inkscape:pageopacity="1"
     inkscape:pagecheckerboard="0"
     inkscape:deskcolor="#d1d1d1"
     inkscape:document-units="mm"
     inkscape:zoom="0.64594361"
     inkscape:cx="1016.3426"
     inkscape:cy="468.30713"
     inkscape:window-width="1920"
     inkscape:window-height="1020"
     inkscape:window-x="0"
     inkscape:window-y="35"
     inkscape:window-maximized="1"
     inkscape:current-layer="g30"
     showgrid="false" /><defs
     id="defs101" /><rect
     style="display:inline;opacity:1;fill:#c1c1c1;fill-opacity:1;stroke:none;stroke-width:6.08255;stroke-linecap:round;stroke-dasharray:none;stroke-opacity:1;paint-order:fill markers stroke"
     id="rect1"
     width="1160.2346"
     height="816.28046"
     x="1.4210855e-14"
     y="-1.5481228"
     sodipodi:insensitive="true" /><g
     id="g30"
     style="fill:#ff7070;fill-opacity:1;stroke:#000000;stroke-opacity:1;stroke-width:1.00157477;stroke-dasharray:none"><rect
       id="A1"
       width="125.3625"
       height="59.502445"
       x="-194.84459"
       y="31.694204"
       transform="rotate(-90)" /><rect
       id="A2"
       width="125.3625"
       height="59.502445"
       x="-194.84459"
       y="91.196648"
       transform="rotate(-90)" /><rect
       id="A3"
       width="125.3625"
       height="59.502445"
       x="-194.84459"
       y="150.6991"
       transform="rotate(-90)" /><rect
       id="A4"
       width="125.3625"
       height="59.502445"
       x="-194.84459"
       y="210.20154"
       transform="rotate(-90)" /><rect
       id="A5"
       width="125.3625"
       height="59.502445"
       x="-194.84459"
       y="269.70398"
       transform="rotate(-90)" /><rect
       id="A6"
       width="125.3625"
       height="59.502445"
       x="-194.84459"
       y="329.20642"
       transform="rotate(-90)" /><rect
       id="A7"
       width="125.3625"
       height="59.502445"
       x="-194.84459"
       y="388.70886"
       transform="rotate(-90)" /><rect
       id="A8"
       width="125.3625"
       height="59.502445"
       x="-194.84459"
       y="448.2113"
       transform="rotate(-90)" /><rect
       id="A9"
       width="125.3625"
       height="59.502445"
       x="-194.84459"
       y="507.71375"
       transform="rotate(-90)" /><rect
       id="A10"
       width="125.3625"
       height="59.502445"
       x="-194.84459"
       y="708.22107"
       transform="rotate(-90)" /><rect
       id="A11"
       width="125.3625"
       height="59.502445"
       x="-194.84457"
       y="767.72351"
       transform="rotate(-90)" /><rect
       id="A12"
       width="125.3625"
       height="59.502445"
       x="-194.84456"
       y="827.22595"
       transform="rotate(-90)" /><rect
       id="A13"
       width="125.3625"
       height="59.502445"
       x="-194.84454"
       y="886.72839"
       transform="rotate(-90)" /><rect
       id="A14"
       width="125.3625"
       height="59.502445"
       x="-194.84453"
       y="946.23083"
       transform="rotate(-90)" /><rect
       id="A15"
       width="125.3625"
       height="59.502445"
       x="-194.84451"
       y="1005.7333"
       transform="rotate(-90)" /><rect
       id="B1"
       width="125.3625"
       height="59.502445"
       x="-445.56958"
       y="31.694204"
       transform="rotate(-90)" /><rect
       id="B2"
       width="125.3625"
       height="59.502445"
       x="-445.56958"
       y="91.196648"
       transform="rotate(-90)" /><rect
       id="B3"
       width="124.48042"
       height="62.798603"
       x="-435.42871"
       y="329.23639"
       transform="rotate(-90)" /><rect
       id="B4"
       width="124.48042"
       height="62.798603"
       x="-435.42871"
       y="392.03497"
       transform="rotate(-90)" /><rect
       id="B5"
       width="124.48042"
       height="62.798603"
       x="-435.42871"
       y="454.83359"
       transform="rotate(-90)" /><rect
       id="B6"
       width="124.48042"
       height="62.798603"
       x="-435.42871"
       y="517.63214"
       transform="rotate(-90)" /><rect
       id="B7"
       width="124.48042"
       height="62.798603"
       x="-435.42871"
       y="580.43079"
       transform="rotate(-90)" /><rect
       id="B8"
       width="124.48042"
       height="62.798603"
       x="-435.42871"
       y="643.22937"
       transform="rotate(-90)" /><rect
       id="B9"
       width="124.48042"
       height="62.798603"
       x="-435.42871"
       y="706.02795"
       transform="rotate(-90)" /><rect
       id="B10"
       width="124.48042"
       height="62.798603"
       x="-435.42871"
       y="768.82654"
       transform="rotate(-90)" /><rect
       id="B11"
       width="124.48042"
       height="62.798603"
       x="-435.42871"
       y="831.62512"
       transform="rotate(-90)" /><rect
       id="B12"
       width="124.48042"
       height="62.798603"
       x="-435.42871"
       y="894.42371"
       transform="rotate(-90)" /><rect
       id="C7"
       width="124.48042"
       height="62.798603"
       x="-559.90912"
       y="580.43079"
       transform="rotate(-90)" /><rect
       id="C1"
       width="125.3625"
       height="59.502445"
       x="-570.93207"
       y="31.694204"
       transform="rotate(-90)" /><rect
       id="C5"
       width="124.48042"
       height="62.798603"
       x="-559.90912"
       y="454.83359"
       transform="rotate(-90)" /><rect
       id="C6"
       width="124.48042"
       height="62.798603"
       x="-559.90912"
       y="517.63214"
       transform="rotate(-90)" /><rect
       id="C8"
       width="124.48042"
       height="62.798603"
       x="-559.90912"
       y="643.22937"
       transform="rotate(-90)" /><rect
       id="C2"
       width="125.3625"
       height="59.502445"
       x="-570.93207"
       y="91.196648"
       transform="rotate(-90)" /><rect
       id="C4"
       width="124.48042"
       height="62.798603"
       x="-559.90912"
       y="392.03497"
       transform="rotate(-90)" /><rect
       id="C9"
       width="124.48042"
       height="62.798603"
       x="-559.90912"
       y="706.02795"
       transform="rotate(-90)" /><rect
       id="C3"
       width="124.48042"
       height="62.798603"
       x="-559.90912"
       y="329.23639"
       transform="rotate(-90)" /><rect
       id="C10"
       width="124.48042"
       height="62.798603"
       x="-559.90912"
       y="768.82654"
       transform="rotate(-90)" /><rect
       id="C11"
       width="124.48042"
       height="62.798603"
       x="-559.90912"
       y="831.62512"
       transform="rotate(-90)" /><rect
       id="C12"
       width="124.48042"
       height="62.798603"
       x="-559.90912"
       y="894.42371"
       transform="rotate(-90)" /><rect
       id="D3"
       width="125.45737"
       height="60.790073"
       x="-789.88721"
       y="151.60608"
       transform="rotate(-90)" /><rect
       id="D4"
       width="125.45737"
       height="60.790073"
       x="-789.88721"
       y="212.39612"
       transform="rotate(-90)" /><rect
       id="D5"
       width="125.45737"
       height="60.790073"
       x="-789.88721"
       y="273.18622"
       transform="rotate(-90)" /><rect
       id="D6"
       width="125.45737"
       height="60.790073"
       x="-789.88721"
       y="333.97635"
       transform="rotate(-90)" /><rect
       id="D2"
       width="125.45737"
       height="60.790073"
       x="-789.88721"
       y="90.815987"
       transform="rotate(-90)" /><rect
       id="D7"
       width="125.45737"
       height="60.790073"
       x="-789.88721"
       y="394.76639"
       transform="rotate(-90)" /><rect
       id="D1"
       width="125.45737"
       height="60.790073"
       x="-789.88721"
       y="30.025944"
       transform="rotate(-90)" /><rect
       id="D8"
       width="125.45737"
       height="60.790073"
       x="-789.88721"
       y="455.55649"
       transform="rotate(-90)" /><rect
       id="D10"
       width="125.45737"
       height="60.790073"
       x="-789.88721"
       y="637.92664"
       transform="rotate(-90)" /><rect
       id="D9"
       width="125.45737"
       height="60.790073"
       x="-789.88721"
       y="577.13654"
       transform="rotate(-90)" /><rect
       id="D11"
       width="125.45737"
       height="60.790073"
       x="-789.88721"
       y="698.71674"
       transform="rotate(-90)" /><rect
       id="D12"
       width="125.45737"
       height="60.790073"
       x="-789.88721"
       y="759.50684"
       transform="rotate(-90)" /><rect
       id="D13"
       width="125.45737"
       height="60.790073"
       x="-789.88721"
       y="820.29694"
       transform="rotate(-90)" /><rect
       id="D14"
       width="125.45737"
       height="60.790073"
       x="-789.88721"
       y="881.08704"
       transform="rotate(-90)" /><rect
       id="D15"
       width="125.45737"
       height="60.790073"
       x="-789.88721"
       y="941.87714"
       transform="rotate(-90)" /><rect
       id="D16"
       width="125.45737"
       height="60.790073"
       x="-789.88721"
       y="1002.6672"
       transform="rotate(-90)" /><rect
       id="D17"
       width="125.45737"
       height="60.790073"
       x="-789.88721"
       y="1063.4573"
       transform="rotate(-90)" /></g></svg>
